# xmcd CD database file
#
# Track frame offsets:
#	150
#	17095
#	46465
#	64219
#	82751
#	103724
#	123329
#	139331
#	157645
#	177180
#	196484
#	218015
#	232540
#	249451
#	270804
#	291704
#	319230
#
# Disc length: 4509 seconds
#
# Revision: 0
# Processed by: cddbd v1.5.1PL0 Copyright (c) Steve Scherf et al.
# Submitted via: CDex 1.51
#
DISCID=e4119b11
DTITLE=Swing Out Sister - Songs
DYEAR=2002
DGENRE=Jazz
TTITLE0=Breakout
TTITLE1=Twilight World
TTITLE2=Surrender
TTITLE3=Fooled By A Smile
TTITLE4=Communion
TTITLE5=Forever Blue
TTITLE6=You On My Mind
TTITLE7=Tainted
TTITLE8=Waiting Game
TTITLE9=Precious Words
TTITLE10=Masquerade (Instrumental)
TTITLE11=12
TTITLE12=13
TTITLE13=La La Means I Love You
TTITLE14=Who's Been Sleeping
TTITLE15=Stop And Think It Over
TTITLE16=Precious Words (Instrumental)
EXTD=YEAR: 2002
EXTT0=
EXTT1=
EXTT2=
EXTT3=
EXTT4=
EXTT5=
EXTT6=
EXTT7=
EXTT8=
EXTT9=
EXTT10=
EXTT11=
EXTT12=
EXTT13=
EXTT14=
EXTT15=
EXTT16=
PLAYORDER=
